<?xml version="1.0" encoding="UTF-8"?>
<!-- Generated by jsxcad -->
<!DOCTYPE svg PUBLIC "-//W3C//DTD SVG 1.1 Tiny//EN" "http://www.w3.org/Graphics/SVG/1.1/DTD/svg11-tiny.dtd">
<svg baseProfile="tiny" height="1.3750000000000009mm" width="0.7500000000000004mm" viewBox="0 0 0.7500000000000004 1.3750000000000009" version="1.1" stroke="black" stroke-width=".1" fill="none" xmlns="http://www.w3.org/2000/svg">
<path fill="#a52a2a" stroke="#a52a2a" d="M0 0 L0.75 0 L0.75 1.375 L0 1.375 M0.49308 0.90398 L0.56079 0.85478 L0.61276 0.76475 L0.62363 0.66137 L0.59151 0.5625 L0.52195 0.48525 L0.42698 0.44296 L0.32302 0.44296 L0.25752 0.47213 L0.22805 0.48525 L0.15849 0.5625 L0.12637 0.66137 L0.13724 0.76475 L0.18921 0.85478 L0.27332 0.91589 L0.375 0.9375 L0.47668 0.91589 z"/>
<path fill="#a52a2a" stroke="#a52a2a" d="M0.7500000000000002 1.375 L0.7500000000000002 1.375 L0.7500000000000002 0 L0.7500000000000002 0 z"/>
<path fill="#a52a2a" stroke="#a52a2a" d="M0.4766797086848468 0.91588959903909 L0.4766797086848468 0.91588959903909 L0.493077189593259 0.9039761318069726 L0.5607899502386836 0.8547799315094239 L0.5607899502386836 0.8547799315094239 L0.493077189593259 0.9039761318069726 z"/>
<path fill="#a52a2a" stroke="#a52a2a" d="M0.6236302487132396 0.6613700261408149 L0.6236302487132396 0.6613700261408149 L0.6127645256248578 0.7647504756623398 L0.6127645256248578 0.7647504756623398 z"/>
<path fill="#a52a2a" stroke="#a52a2a" d="M2.220446049250313e-16 0 L2.220446049250313e-16 0 L2.220446049250313e-16 1.375 L2.220446049250313e-16 1.375 z"/>
<path fill="#a52a2a" stroke="#a52a2a" d="M0.6127649365003948 0.7647528500898318 L0.6127649365003948 0.7647528500898318 L0.5607883029490384 0.8547790202071704 L0.5607883029490384 0.8547790202071704 z"/>
<path fill="#a52a2a" stroke="#a52a2a" d="M0.37500000000000006 0.9375000000000004 L0.37500000000000006 0.9375000000000004 L0.4766794404949839 0.915887367735855 L0.4766794404949839 0.915887367735855 z"/>
<path fill="#a52a2a" stroke="#a52a2a" d="M0 1.3750000000000004 L0 1.3750000000000004 L0.75 1.3750000000000004 L0.75 1.3750000000000004 z"/>
<path fill="#a52a2a" stroke="#a52a2a" d="M0.27332055950501605 0.915887367735855 L0.27332055950501605 0.915887367735855 L0.3749999999999999 0.9375000000000003 L0.3749999999999999 0.9375000000000003 z"/>
<path fill="#a52a2a" stroke="#a52a2a" d="M0.18921004976131645 0.8547799315094237 L0.18921004976131645 0.8547799315094237 L0.2733202913151533 0.9158895990390898 L0.2733202913151533 0.9158895990390898 z"/>
<path fill="#a52a2a" stroke="#a52a2a" d="M0.13723506349960543 0.7647528500898316 L0.13723506349960543 0.7647528500898316 L0.1892116970509619 0.8547790202071702 L0.1892116970509619 0.8547790202071702 z"/>
<path fill="#a52a2a" stroke="#a52a2a" d="M0.12636975128676084 0.6613700261408147 L0.12636975128676084 0.6613700261408147 L0.13723547437514258 0.7647504756623397 L0.13723547437514258 0.7647504756623397 z"/>
<path fill="#a52a2a" stroke="#a52a2a" d="M0.22804903128540552 0.4852478242313974 L0.22804903128540552 0.4852478242313974 L0.25751870082523504 0.4721270820057021 L0.32302149546307535 0.4429633588650614 L0.32302149546307535 0.4429633588650614 L0.25751870082523504 0.4721270820057021 z"/>
<path fill="#a52a2a" stroke="#a52a2a" d="M0.15849330060025082 0.5625010724300308 L0.15849330060025082 0.5625010724300308 L0.12636894958283407 0.6613696586987735 L0.12636894958283407 0.6613696586987735 z"/>
<path fill="#a52a2a" stroke="#a52a2a" d="M0.22804992349809383 0.4852499311173743 L0.22804992349809383 0.4852499311173743 L0.15849201524194326 0.5625018145319959 L0.15849201524194326 0.5625018145319959 z"/>
<path fill="#a52a2a" stroke="#a52a2a" d="M0 4.440892098500626e-16 L0 4.440892098500626e-16 L0.75 4.440892098500626e-16 L0.75 4.440892098500626e-16 z"/>
<path fill="#a52a2a" stroke="#a52a2a" d="M0.42697999999999997 0.442963099816549 L0.42697999999999997 0.442963099816549 L0.3230199999999999 0.44296309981654897 L0.3230199999999999 0.44296309981654897 z"/>
<path fill="#a52a2a" stroke="#a52a2a" d="M0.5219509687145946 0.48524782423139723 L0.5219509687145946 0.48524782423139723 L0.42697850453692465 0.4429633588650612 L0.42697850453692465 0.4429633588650612 z"/>
<path fill="#a52a2a" stroke="#a52a2a" d="M0.5915079847580569 0.5625018145319957 L0.5915079847580569 0.5625018145319957 L0.5219500765019064 0.4852499311173741 L0.5219500765019064 0.4852499311173741 z"/>
<path fill="#a52a2a" stroke="#a52a2a" d="M0.5915066993997495 0.5625010724300307 L0.5915066993997495 0.5625010724300307 L0.6236310504171663 0.6613696586987734 L0.6236310504171663 0.6613696586987734 z"/>
<path fill="#a52a2a" stroke="#a52a2a" d="M0.75 0 L0 0 L0 1.375 L0.75 1.375 M0.59151 0.5625 L0.62363 0.66137 L0.61276 0.76475 L0.56079 0.85478 L0.49308 0.90398 L0.47668 0.91589 L0.375 0.9375 L0.27332 0.91589 L0.18921 0.85478 L0.13724 0.76475 L0.12637 0.66137 L0.15849 0.5625 L0.22805 0.48525 L0.25752 0.47213 L0.32302 0.44296 L0.42698 0.44296 L0.52195 0.48525 z"/>
</svg>